<svg xmlns="http://www.w3.org/2000/svg" width="380" height="410" viewBox="0 0 380 410">
  <defs>
    <style>@import url('https://fonts.googleapis.com/css2?family=JetBrains+Mono:wght@400;600;700&amp;family=Syne:wght@800&amp;display=swap');</style>
    <radialGradient id="g1" cx="100%" cy="0%" r="50%">
      <stop offset="0%" stop-color="#7cffd4" stop-opacity="0.07"/>
      <stop offset="100%" stop-color="#7cffd4" stop-opacity="0"/>
    </radialGradient>
    <radialGradient id="g2" cx="0%" cy="100%" r="60%">
      <stop offset="0%" stop-color="#6366f1" stop-opacity="0.06"/>
      <stop offset="100%" stop-color="#6366f1" stop-opacity="0"/>
    </radialGradient>
  </defs>

  <!-- bg -->
  <rect width="380" height="410" rx="16" fill="#12151f" stroke="rgba(255,255,255,0.06)" stroke-width="1"/>
  <rect width="380" height="410" rx="16" fill="url(#g1)"/>
  <rect width="380" height="410" rx="16" fill="url(#g2)"/>

  <!-- header -->
  <text x="28" y="34" font-family="'JetBrains Mono',monospace" font-size="9" font-weight="600" fill="#7cffd4" letter-spacing="3">// STACK</text>
  <text x="28" y="58" font-family="'Syne',sans-serif" font-size="20" font-weight="800" fill="#e8eaf0">Samuel Oliveira</text>
  <text x="28" y="76" font-family="'JetBrains Mono',monospace" font-size="10" fill="#4a5068">@samsamchi · Software Developer</text>

  <!-- dot grid -->
  <circle cx="349" cy="14" r="2.5" fill="#7cffd4" opacity="0.18"/><circle cx="339" cy="14" r="2.5" fill="#7cffd4" opacity="0.18"/><circle cx="329" cy="14" r="2.5" fill="#7cffd4" opacity="0.18"/><circle cx="319" cy="14" r="2.5" fill="#7cffd4" opacity="0.18"/><circle cx="349" cy="24" r="2.5" fill="#7cffd4" opacity="0.18"/><circle cx="339" cy="24" r="2.5" fill="#7cffd4" opacity="0.18"/><circle cx="329" cy="24" r="2.5" fill="#7cffd4" opacity="0.18"/><circle cx="319" cy="24" r="2.5" fill="#7cffd4" opacity="0.18"/><circle cx="349" cy="34" r="2.5" fill="#7cffd4" opacity="0.18"/><circle cx="339" cy="34" r="2.5" fill="#7cffd4" opacity="0.18"/><circle cx="329" cy="34" r="2.5" fill="#7cffd4" opacity="0.18"/><circle cx="319" cy="34" r="2.5" fill="#7cffd4" opacity="0.18"/><circle cx="349" cy="44" r="2.5" fill="#7cffd4" opacity="0.18"/><circle cx="339" cy="44" r="2.5" fill="#7cffd4" opacity="0.18"/><circle cx="329" cy="44" r="2.5" fill="#7cffd4" opacity="0.18"/><circle cx="319" cy="44" r="2.5" fill="#7cffd4" opacity="0.18"/>

  <!-- rows -->
  
      <!-- row Python -->
      <g transform="translate(28, 90)">
        <!-- icon bg -->
        <rect x="0" y="6" width="26" height="26" rx="7" fill="#0d1a2a"/>
        <svg x="0" y="6" width="26" height="26" viewBox="0 0 128 128"><g><path fill="#3572A5" d="M63.391 1.988c-4.222.02-8.252.379-11.8 1.007-10.45 1.846-12.346 5.71-12.346 12.837v9.411h24.693v3.137H29.977c-7.176 0-13.46 4.313-15.426 12.521-2.268 9.405-2.368 15.275 0 25.096 1.755 7.311 5.947 12.519 13.124 12.519h8.491V67.234c0-8.151 7.051-15.34 15.426-15.34h24.665c6.866 0 12.346-5.654 12.346-12.548V15.833c0-6.693-5.646-11.72-12.346-12.837-4.244-.706-8.645-1.027-12.866-1.008zM50.037 9.557c2.55 0 4.634 2.117 4.634 4.721 0 2.593-2.083 4.69-4.634 4.69-2.56 0-4.633-2.097-4.633-4.69-.001-2.604 2.073-4.721 4.633-4.721z"/><path fill="#FFD43B" d="M91.682 28.38v10.966c0 8.5-7.208 15.655-15.426 15.655H51.591c-6.756 0-12.346 5.783-12.346 12.548v23.515c0 6.693 5.818 10.628 12.346 12.547 7.816 2.297 15.312 2.713 24.665 0 6.216-1.801 12.346-5.423 12.346-12.547v-9.412H63.938v-3.138h37.012c7.176 0 9.852-5.005 12.348-12.519 2.578-7.735 2.467-15.174 0-25.096-1.774-7.145-5.161-12.521-12.348-12.521h-9.268zM77.809 87.927c2.561 0 4.634 2.097 4.634 4.692 0 2.602-2.074 4.719-4.634 4.719-2.55 0-4.633-2.117-4.633-4.719 0-2.595 2.083-4.692 4.633-4.692z"/></g></svg>
        

        <!-- lang name -->
        <text x="34" y="20" font-family="'JetBrains Mono',monospace" font-size="12" font-weight="600" fill="#e8eaf0">Python</text>

        <!-- tag -->
        <rect x="34" y="24" width="55.5" height="12" rx="6" fill="rgba(255,255,255,0.04)" stroke="rgba(255,255,255,0.06)" stroke-width="1"/>
        <text x="61.75" y="33.5" font-family="'JetBrains Mono',monospace" font-size="7.5" font-weight="600" fill="#4a5068" text-anchor="middle" letter-spacing="1">BACKEND</text>

        <!-- pct -->
        <text x="324" y="20" font-family="'JetBrains Mono',monospace" font-size="11" font-weight="700" fill="#e8eaf0" text-anchor="end">91%</text>

        <!-- bar track -->
        <rect x="0" y="38" width="324" height="4" rx="2" fill="rgba(255,255,255,0.05)"/>
        <!-- bar fill -->
        <rect x="0" y="38" width="295" height="4" rx="2" fill="#3572A5"/>
      </g>
    
      <!-- row Tcl -->
      <g transform="translate(28, 142)">
        <!-- icon bg -->
        <rect x="0" y="6" width="26" height="26" rx="7" fill="#1a1a2e"/>
        <svg x="0" y="6" width="26" height="26" viewBox="0 0 128 128"></svg>
        <text x="13" y="23" font-family="monospace" font-size="9" font-weight="700" fill="#fff" text-anchor="middle">Tc</text>

        <!-- lang name -->
        <text x="34" y="20" font-family="'JetBrains Mono',monospace" font-size="12" font-weight="600" fill="#e8eaf0">Tcl</text>

        <!-- tag -->
        <rect x="34" y="24" width="42.5" height="12" rx="6" fill="rgba(255,255,255,0.04)" stroke="rgba(255,255,255,0.06)" stroke-width="1"/>
        <text x="55.25" y="33.5" font-family="'JetBrains Mono',monospace" font-size="7.5" font-weight="600" fill="#4a5068" text-anchor="middle" letter-spacing="1">OTHER</text>

        <!-- pct -->
        <text x="324" y="20" font-family="'JetBrains Mono',monospace" font-size="11" font-weight="700" fill="#e8eaf0" text-anchor="end">6%</text>

        <!-- bar track -->
        <rect x="0" y="38" width="324" height="4" rx="2" fill="rgba(255,255,255,0.05)"/>
        <!-- bar fill -->
        <rect x="0" y="38" width="19" height="4" rx="2" fill="#7cffd4"/>
      </g>
    
      <!-- row PLpgSQL -->
      <g transform="translate(28, 194)">
        <!-- icon bg -->
        <rect x="0" y="6" width="26" height="26" rx="7" fill="#1a1a2e"/>
        <svg x="0" y="6" width="26" height="26" viewBox="0 0 128 128"></svg>
        <text x="13" y="23" font-family="monospace" font-size="9" font-weight="700" fill="#fff" text-anchor="middle">PL</text>

        <!-- lang name -->
        <text x="34" y="20" font-family="'JetBrains Mono',monospace" font-size="12" font-weight="600" fill="#e8eaf0">PLpgSQL</text>

        <!-- tag -->
        <rect x="34" y="24" width="42.5" height="12" rx="6" fill="rgba(255,255,255,0.04)" stroke="rgba(255,255,255,0.06)" stroke-width="1"/>
        <text x="55.25" y="33.5" font-family="'JetBrains Mono',monospace" font-size="7.5" font-weight="600" fill="#4a5068" text-anchor="middle" letter-spacing="1">OTHER</text>

        <!-- pct -->
        <text x="324" y="20" font-family="'JetBrains Mono',monospace" font-size="11" font-weight="700" fill="#e8eaf0" text-anchor="end">1%</text>

        <!-- bar track -->
        <rect x="0" y="38" width="324" height="4" rx="2" fill="rgba(255,255,255,0.05)"/>
        <!-- bar fill -->
        <rect x="0" y="38" width="3" height="4" rx="2" fill="#7cffd4"/>
      </g>
    
      <!-- row TypeScript -->
      <g transform="translate(28, 246)">
        <!-- icon bg -->
        <rect x="0" y="6" width="26" height="26" rx="7" fill="#0d1f35"/>
        <svg x="0" y="6" width="26" height="26" viewBox="0 0 128 128"><g><path fill="#fff" d="M22.67 47h99.67v73.67H22.67z"/><path fill="#007acc" d="M1.5 63.91v62.5h125v-125H1.5zm100.73-5a15.56 15.56 0 017.82 4.5 20.58 20.58 0 013 4c0 .16-5.4 3.81-8.69 5.85-.12.08-.6-.44-1.13-1.23a7.09 7.09 0 00-5.87-3.53c-3.79-.26-6.23 1.73-6.21 5a4.58 4.58 0 00.54 2.34c.83 1.73 2.38 2.76 7.24 4.86 8.95 3.85 12.78 6.39 15.16 10 2.66 4 3.25 10.46 1.45 15.24-2 5.2-6.9 8.73-13.83 9.9a38.32 38.32 0 01-9.52-.1 23 23 0 01-12.72-6.63c-1.15-1.27-3.39-4.58-3.25-4.82a9.34 9.34 0 011.15-.73L82 101l3.59-2.08.75 1.11a16.78 16.78 0 004.74 4.54c4 2.1 9.46 1.81 12.16-.62a5.43 5.43 0 00.69-6.92c-1-1.39-3-2.56-8.59-5-6.45-2.78-9.23-4.5-11.77-7.24a16.48 16.48 0 01-3.43-6.25 25 25 0 01-.22-8c1.33-6.23 6-10.58 12.82-11.87a31.66 31.66 0 019.49.26zm-29.34 5.24v5.12H56.66v46.23H45.15V69.26H28.88v-5a49.19 49.19 0 01.12-5.17C29.08 59 39 59 51.36 59h21.3z"/></g></svg>
        

        <!-- lang name -->
        <text x="34" y="20" font-family="'JetBrains Mono',monospace" font-size="12" font-weight="600" fill="#e8eaf0">TypeScript</text>

        <!-- tag -->
        <rect x="34" y="24" width="36" height="12" rx="6" fill="rgba(255,255,255,0.04)" stroke="rgba(255,255,255,0.06)" stroke-width="1"/>
        <text x="52" y="33.5" font-family="'JetBrains Mono',monospace" font-size="7.5" font-weight="600" fill="#4a5068" text-anchor="middle" letter-spacing="1">MAIN</text>

        <!-- pct -->
        <text x="324" y="20" font-family="'JetBrains Mono',monospace" font-size="11" font-weight="700" fill="#e8eaf0" text-anchor="end">1%</text>

        <!-- bar track -->
        <rect x="0" y="38" width="324" height="4" rx="2" fill="rgba(255,255,255,0.05)"/>
        <!-- bar fill -->
        <rect x="0" y="38" width="3" height="4" rx="2" fill="#007acc"/>
      </g>
    
      <!-- row C -->
      <g transform="translate(28, 298)">
        <!-- icon bg -->
        <rect x="0" y="6" width="26" height="26" rx="7" fill="#1a2535"/>
        <svg x="0" y="6" width="26" height="26" viewBox="0 0 128 128"><g><path fill="#659AD3" d="M115.4 30.7L67.1 2.9c-.8-.5-1.9-.7-3.1-.7-1.2 0-2.3.3-3.1.7l-48 27.9c-1.7 1-2.9 3.5-2.9 5.4v55.7c0 1.1.2 2.4 1 3.5l106.8-61.5c-.6-1.2-1.5-2.1-2.4-3.2z"/><path fill="#03599C" d="M10.7 95.3c.5.8 1.2 1.5 1.9 1.9l48.2 27.9c.8.5 1.9.7 3.1.7 1.2 0 2.3-.3 3.1-.7l48-27.9c1.7-1 2.9-3.5 2.9-5.4V36.1c0-.9-.1-1.9-.6-2.8l-106.6 62z"/><path fill="#fff" d="M85.3 76.1C81.1 83.5 73.1 88.5 64 88.5c-13.5 0-24.5-11-24.5-24.5s11-24.5 24.5-24.5c9.1 0 17.1 5 21.3 12.5l13-7.5c-6.8-11.9-19.6-20-34.3-20-21.8 0-39.5 17.7-39.5 39.5s17.7 39.5 39.5 39.5c14.6 0 27.4-8 34.2-19.8l-12.9-7.6z"/></g></svg>
        

        <!-- lang name -->
        <text x="34" y="20" font-family="'JetBrains Mono',monospace" font-size="12" font-weight="600" fill="#e8eaf0">C</text>

        <!-- tag -->
        <rect x="34" y="24" width="55.5" height="12" rx="6" fill="rgba(255,255,255,0.04)" stroke="rgba(255,255,255,0.06)" stroke-width="1"/>
        <text x="61.75" y="33.5" font-family="'JetBrains Mono',monospace" font-size="7.5" font-weight="600" fill="#4a5068" text-anchor="middle" letter-spacing="1">SYSTEMS</text>

        <!-- pct -->
        <text x="324" y="20" font-family="'JetBrains Mono',monospace" font-size="11" font-weight="700" fill="#e8eaf0" text-anchor="end">0%</text>

        <!-- bar track -->
        <rect x="0" y="38" width="324" height="4" rx="2" fill="rgba(255,255,255,0.05)"/>
        <!-- bar fill -->
        <rect x="0" y="38" width="0" height="4" rx="2" fill="#659ad3"/>
      </g>
    

  <!-- divider -->
  <line x1="28" y1="366" x2="352" y2="366" stroke="rgba(255,255,255,0.06)" stroke-width="1"/>

  <!-- footer -->
  <circle cx="33" cy="388" r="3" fill="#7cffd4" opacity="0.9"/>
  <text x="42" y="392" font-family="'JetBrains Mono',monospace" font-size="9" fill="#4a5068">603 contributions · 2026</text>
  <text x="352" y="392" font-family="'JetBrains Mono',monospace" font-size="9" fill="#7cffd4" text-anchor="end" opacity="0.7">github/samsamchi →</text>
</svg>